<?xml version="1.0" standalone="no"?>
<!DOCTYPE svg PUBLIC "-//W3C//DTD SVG 20010904//EN"
 "http://www.w3.org/TR/2001/REC-SVG-20010904/DTD/svg10.dtd">
<svg version="1.0" xmlns="http://www.w3.org/2000/svg"
 width="858.000000pt" height="453.000000pt" viewBox="0 0 858.000000 453.000000"
 preserveAspectRatio="xMidYMid meet">

<g transform="translate(0.000000,453.000000) scale(0.100000,-0.100000)"
fill="#000000" stroke="none">
<path d="M4340 3997 c3 -3 50 -22 105 -42 368 -137 903 -437 1455 -818 371
-255 851 -627 1077 -834 57 -51 107 -93 112 -93 5 0 24 -12 43 -27 l33 -27
-30 33 c-84 92 -445 393 -735 613 -385 291 -835 593 -1190 798 -183 105 -567
293 -705 343 -130 49 -173 62 -165 54z"/>
<path d="M3815 3811 c-97 -59 -105 -160 -27 -321 78 -159 224 -349 487 -634
138 -149 569 -560 573 -547 2 6 -120 132 -271 280 -496 489 -738 797 -793
1011 -22 88 -12 134 41 188 45 44 40 54 -10 23z"/>
<path d="M3283 3292 c10 -10 17 -27 17 -37 0 -10 -7 -27 -17 -37 -15 -17 -15
-18 4 -18 25 0 53 30 53 57 0 24 -30 53 -55 53 -17 0 -17 -1 -2 -18z"/>
<path d="M2370 3195 c0 -25 5 -45 10 -45 6 0 10 20 10 45 0 25 -4 45 -10 45
-5 0 -10 -20 -10 -45z"/>
<path d="M2429 3213 c0 -25 -1 -26 -9 -8 -7 16 -9 14 -9 -15 -1 -31 2 -36 24
-38 23 -2 25 1 25 43 0 33 -4 45 -15 45 -10 0 -15 -10 -16 -27z"/>
<path d="M1072 2923 c-2 -201 0 -233 13 -233 13 0 15 22 15 138 0 76 -4 142
-10 148 -5 5 -11 47 -13 94 -1 47 -4 -20 -5 -147z"/>
<path d="M1360 2910 c0 -267 5 -297 59 -324 16 -9 36 -16 43 -15 7 0 3 5 -9
11 -47 23 -53 57 -53 322 0 239 -1 246 -20 246 -19 0 -20 -7 -20 -240z"/>
<path d="M1770 3112 c0 -43 25 -77 36 -49 11 29 0 82 -18 85 -15 3 -18 -4 -18
-36z"/>
<path d="M2484 3010 c1 -130 3 -145 19 -148 14 -3 17 5 17 52 0 43 -4 56 -15
56 -11 0 -15 20 -18 93 -2 50 -3 27 -3 -53z"/>
<path d="M2990 3142 c0 -12 153 -159 173 -165 31 -11 18 8 -66 91 -74 74 -107
97 -107 74z"/>
<path d="M1795 3020 c-4 -6 -11 -8 -16 -5 -5 4 -9 -71 -9 -188 0 -151 -4 -204
-16 -240 -18 -54 -91 -139 -143 -168 -35 -19 -18 -18 36 2 39 14 110 88 133
136 32 67 41 213 18 274 -21 55 -23 131 -3 169 14 28 14 43 0 20z"/>
<path d="M2028 2959 c-26 -15 -23 -64 4 -83 26 -19 47 -21 30 -4 -7 7 -12 26
-12 43 0 17 5 36 12 43 15 15 -9 16 -34 1z"/>
<path d="M2890 2642 c0 -316 1 -330 20 -347 20 -18 20 -17 20 328 0 340 0 347
-20 347 -20 0 -20 -7 -20 -328z"/>
<path d="M2225 2833 c165 -86 181 -299 30 -402 -43 -29 -46 -33 -20 -27 37 9
87 46 118 89 68 91 61 205 -16 285 -35 37 -96 72 -124 72 -13 -1 -9 -6 12 -17z"/>
<path d="M3350 2816 c0 -30 27 -55 36 -33 6 17 -12 57 -26 57 -6 0 -10 -11
-10 -24z"/>
<path d="M3510 2825 c0 -10 12 -29 27 -43 25 -23 27 -23 34 -6 3 11 2 21 -5
23 -6 2 -21 13 -33 24 -21 19 -23 19 -23 2z"/>
<path d="M3690 2711 c0 -88 3 -121 14 -130 19 -16 26 14 26 126 0 100 -5 123
-26 123 -11 0 -14 -24 -14 -119z"/>
<path d="M3401 2767 c0 -17 -5 -26 -12 -22 -6 4 -5 -3 3 -14 13 -22 13 -22 16
-1 2 11 1 30 -1 43 -4 18 -4 17 -6 -6z"/>
<path d="M1130 2676 c0 -8 -5 -16 -11 -18 -9 -3 -9 -9 0 -25 7 -15 11 -101 11
-262 0 -220 1 -241 18 -253 32 -23 33 -36 5 -62 -26 -24 -26 -26 -7 -26 47 0
72 67 34 93 -18 13 -20 25 -19 208 0 107 0 201 0 209 0 8 -7 34 -15 58 -9 23
-13 54 -10 67 3 14 3 25 0 25 -3 0 -6 -6 -6 -14z"/>
<path d="M665 2653 c8 -37 43 -70 80 -78 25 -4 26 -4 9 4 -29 13 -54 50 -54
78 0 17 -6 23 -21 23 -18 0 -20 -4 -14 -27z"/>
<path d="M3277 2673 c-10 -10 -8 -25 2 -18 6 3 15 -3 21 -12 11 -17 11 -17 6
0 -3 10 -6 23 -6 28 0 11 -14 12 -23 2z"/>
<path d="M1073 2585 c0 -44 2 -61 4 -37 2 23 2 59 0 80 -2 20 -4 1 -4 -43z"/>
<path d="M3520 2615 c0 -37 3 -45 19 -45 10 0 22 7 25 16 3 9 11 12 18 8 7 -4
-3 9 -21 29 -19 21 -36 37 -38 37 -2 0 -3 -20 -3 -45z"/>
<path d="M3630 2580 c0 -5 5 -10 11 -10 5 0 7 5 4 10 -3 6 -8 10 -11 10 -2 0
-4 -4 -4 -10z"/>
<path d="M1008 2509 c-15 -21 -46 -52 -69 -69 -54 -39 -37 -39 22 -1 72 49 81
58 77 84 -3 24 -4 23 -30 -14z"/>
<path d="M2507 2544 c-9 -10 3 -32 490 -881 356 -621 459 -793 474 -793 19 0
18 2 -5 43 -39 67 -291 506 -628 1095 -170 298 -313 542 -317 542 -4 0 -10 -3
-14 -6z"/>
<path d="M7728 2443 c-14 -3 -18 -15 -18 -54 0 -42 3 -49 20 -49 18 0 20 7 20
55 0 30 -1 54 -2 54 -2 -1 -11 -3 -20 -6z"/>
<path d="M4249 2260 c101 -99 190 -180 198 -180 8 0 13 4 11 8 -10 25 -358
352 -374 352 -13 -1 43 -61 165 -180z"/>
<path d="M6290 2432 c0 -4 150 -157 334 -341 209 -209 336 -329 341 -322 8 13
-642 671 -662 671 -7 0 -13 -3 -13 -8z"/>
<path d="M5669 2375 c191 -90 334 -243 413 -445 54 -135 62 -353 20 -488 l-20
-62 67 -39 c332 -193 586 -323 851 -435 180 -75 401 -159 406 -153 2 2 -41 20
-96 40 -174 65 -410 166 -595 256 -166 81 -553 296 -583 325 -10 10 -10 20 1
52 27 74 40 186 33 279 -21 301 -201 555 -482 678 -89 39 -102 32 -15 -8z"/>
<path d="M2840 2316 c0 -8 7 -16 15 -20 13 -4 14 -2 5 14 -13 23 -20 26 -20 6z"/>
<path d="M7848 2318 c15 -15 16 -74 2 -83 -5 -3 -10 -23 -10 -43 0 -28 -3 -33
-10 -22 -7 10 -9 -7 -9 -55 1 -57 3 -63 9 -35 5 24 7 6 8 -60 0 -63 -3 -87 -8
-70 -7 21 -8 18 -7 -17 1 -38 4 -43 24 -43 l23 0 0 168 c0 156 1 168 20 180
39 24 15 92 -33 92 -16 0 -18 -3 -9 -12z m29 -40 c-3 -8 -6 -5 -6 6 -1 11 2
17 5 13 3 -3 4 -12 1 -19z"/>
<path d="M7807 2298 c6 -7 13 -20 16 -28 4 -10 6 -8 6 6 1 12 -6 25 -15 28
-13 5 -14 3 -7 -6z"/>
<path d="M6990 2242 c19 -17 39 -31 44 -32 15 0 -11 24 -46 44 l-33 19 35 -31z"/>
<path d="M7712 2085 c2 -98 7 -148 16 -157 9 -10 12 19 12 145 0 136 -2 157
-16 157 -13 0 -15 -18 -12 -145z"/>
<path d="M7770 2200 c0 -11 2 -20 4 -20 2 0 6 9 9 20 3 11 1 20 -4 20 -5 0 -9
-9 -9 -20z"/>
<path d="M1035 2105 c-3 -8 -7 -22 -10 -30 -2 -8 1 -17 8 -21 7 -4 9 -4 5 0
-3 4 -2 21 2 37 9 29 4 42 -5 14z"/>
<path d="M4060 1795 c0 -278 0 -285 20 -285 20 0 20 7 20 285 0 278 0 285 -20
285 -20 0 -20 -7 -20 -285z"/>
<path d="M5185 2053 c-181 -73 -295 -269 -266 -454 20 -123 100 -248 194 -302
75 -44 94 -40 29 5 -269 190 -246 578 44 735 64 35 63 42 -1 16z"/>
<path d="M7712 1383 c3 -459 5 -508 19 -511 15 -3 17 22 23 225 3 125 6 233 5
238 0 6 -3 133 -6 283 -4 261 -5 272 -24 272 -19 0 -19 -11 -17 -507z"/>
<path d="M2365 1643 c-43 -76 -103 -183 -135 -238 -236 -408 -299 -526 -284
-532 8 -3 16 -4 18 -2 6 6 409 716 456 802 23 42 46 77 52 77 6 0 5 6 -2 15
-7 8 -16 15 -20 15 -4 0 -43 -62 -85 -137z"/>
<path d="M6620 1368 c0 -145 2 -167 16 -172 9 -4 18 -5 20 -3 2 1 4 69 5 151
1 139 0 150 -20 169 l-21 21 0 -166z"/>
<path d="M7151 1387 c-99 -100 -139 -147 -131 -152 17 -10 283 258 278 280 -2
10 -52 -34 -147 -128z"/>
<path d="M4200 1502 c0 -5 3 -12 7 -15 3 -4 6 -81 5 -171 -2 -134 1 -166 13
-176 8 -7 15 -22 15 -34 0 -17 2 -18 10 -6 5 8 10 11 10 6 0 -6 -10 -20 -22
-33 -26 -28 -17 -41 17 -25 38 17 43 58 11 90 -25 27 -26 30 -28 197 -3 152
-5 170 -20 173 -10 2 -18 -1 -18 -6z"/>
<path d="M4060 1175 c0 -295 1 -305 19 -305 18 0 20 9 23 90 2 50 0 90 -5 90
-4 0 -12 11 -18 24 -9 19 -8 31 5 57 9 17 16 48 17 68 0 29 2 32 9 16 5 -12 9
34 9 123 l1 142 -30 0 -30 0 0 -305z"/>
<path d="M7881 1290 c12 -22 19 -43 16 -47 -4 -3 6 -24 22 -47 143 -210 204
-403 167 -530 -19 -64 -77 -136 -127 -156 -16 -7 -28 -15 -25 -17 10 -10 105
49 136 83 48 55 63 99 64 179 0 119 -70 287 -200 481 -63 94 -86 117 -53 54z"/>
<path d="M7807 1290 c24 -38 53 -72 53 -63 0 6 -14 26 -31 44 -18 19 -28 27
-22 19z"/>
<path d="M4105 1109 c-4 -13 -2 -27 7 -35 12 -12 13 -9 10 21 -5 40 -8 43 -17
14z"/>
<path d="M5864 1067 c-63 -55 -98 -80 -171 -117 -32 -17 -47 -28 -33 -24 95
25 320 184 261 184 -5 0 -31 -19 -57 -43z"/>
<path d="M7428 743 c7 -3 16 -2 19 1 4 3 -2 6 -13 5 -11 0 -14 -3 -6 -6z"/>
</g>
</svg>
