<?xml version="1.0" encoding="UTF-8" standalone="no"?>
<svg
   xmlns:dc="http://purl.org/dc/elements/1.1/"
   xmlns:cc="http://creativecommons.org/ns#"
   xmlns:rdf="http://www.w3.org/1999/02/22-rdf-syntax-ns#"
   xmlns:svg="http://www.w3.org/2000/svg"
   xmlns="http://www.w3.org/2000/svg"
   viewBox="0 0 319.99973 169.59987"
   height="169.59987"
   width="319.99973"
   xml:space="preserve"
   id="svg2"
   version="1.1"><metadata
     id="metadata8"><rdf:RDF><cc:Work
         rdf:about=""><dc:format>image/svg+xml</dc:format><dc:type
           rdf:resource="http://purl.org/dc/dcmitype/StillImage" /></cc:Work></rdf:RDF></metadata><defs
     id="defs6" /><g
     transform="matrix(1.3333333,0,0,-1.3333333,0,169.59987)"
     id="g10"><path
       id="path12"
       style="fill:#22201e;fill-opacity:1;fill-rule:evenodd;stroke:none"
       d="M 0,127.1996 H 239.9998 V -3e-4 L 0,-3e-4 Z" /><g
       id="g14"><g
         id="g16"><path
           id="path18"
           style="fill:#e60c80;fill-opacity:1;fill-rule:nonzero;stroke:none"
           d="m 150.6283,34.6337 c 2.9925,0 5.5751,0.955 7.764,2.8641 l -2e-4,3e-4 0.001,6e-4 c 0.2268,0.1976 0.4493,0.4059 0.6678,0.6244 1.8848,1.8749 3.0056,4.0666 3.3698,6.5699 0.0876,0.6032 0.1319,1.2246 0.1319,1.8641 0,3.3029 -1.1631,6.1064 -3.5017,8.4328 -2.3261,2.3385 -5.1298,3.5019 -8.433,3.5019 -3.2922,0 -6.1076,-1.1634 -8.4337,-3.5019 -2.3261,-2.3264 -3.4894,-5.1299 -3.4894,-8.4328 0,-3.2928 1.1633,-6.1076 3.4894,-8.434 2.3261,-2.3263 5.1415,-3.4894 8.4337,-3.4894 z m 52.2714,23.8249 c -8.4991,8.4098 -87.2686,61.0917 -96.4877,47.1512 -5.1307,-7.0225 17.5638,-29.4613 30.816,-41.3869 3.8503,2.9953 8.3189,4.4932 13.4003,4.4932 6.1185,0 11.3297,-2.1632 15.6685,-6.4911 4.3276,-4.3384 6.4904,-9.5499 6.4904,-15.6679 0,-2.7471 -0.4376,-5.3153 -1.3132,-7.704 10.2687,-6.3233 19.9729,-11.2354 28.2872,-14.419 18.5592,-7.9778 30.0903,-7.9226 19.8056,14.0031 20.5739,-26.6071 -1.0567,-30.1938 -22.735,-21.6992 -8.7426,3.3474 -18.9153,8.4926 -29.6455,15.0982 -0.2858,-0.3166 -0.5817,-0.6293 -0.8895,-0.9366 -4.3388,-4.3271 -9.55,-6.491 -15.6685,-6.491 -6.1076,0 -11.3304,2.1639 -15.6572,6.491 -4.3271,4.3265 -6.4908,9.5499 -6.4908,15.6575 0,4.2565 1.0477,8.0742 3.1425,11.4647 -15.4599,13.61 -41.2534,39.5716 -31.8436,52.45 14.3346,20.3471 90.9154,-37.9582 103.1205,-52.0132" /><path
           id="path20"
           style="fill:#e60c80;fill-opacity:1;fill-rule:nonzero;stroke:none"
           d="m 26.1505,83.4908 h -1.6447 v 4.932 h 6.5767 V 75.5711 h 1.3682 V 60.1163 c 0.2999,-0.0748 0.5684,-0.2313 0.779,-0.4428 0.3047,-0.3038 0.4927,-0.7262 0.4927,-1.1911 0,-0.4649 -0.188,-0.8869 -0.4927,-1.1908 -0.3039,-0.3045 -0.726,-0.4932 -1.1908,-0.4932 -0.4649,0 -0.8873,0.1887 -1.1917,0.4932 -0.3039,0.3039 -0.4927,0.7259 -0.4927,1.1908 0,0.4649 0.1888,0.8873 0.4927,1.1911 0.2114,0.2115 0.479,0.3671 0.7792,0.4422 v 14.6311 h -0.5587 c -0.1151,-2.0432 -0.9125,-3.8095 -2.3924,-5.2895 -1.6104,-1.6055 -3.5462,-2.4072 -5.813,-2.4072 -2.2669,0 -4.2086,0.8017 -5.8133,2.4072 -1.6047,1.6047 -2.4072,3.5462 -2.4072,5.813 h 4.932 c 0,-0.9096 0.32,-1.6835 0.9595,-2.3289 0.6452,-0.6392 1.4199,-0.9593 2.329,-0.9593 0.909,0 1.6829,0.3201 2.323,0.9593 0.6451,0.6454 0.9652,1.4193 0.9652,2.3289 z m 41.9618,4.932 v 3.3208 h 22.2021 c 0.0756,0.2999 0.2316,0.5681 0.4422,0.779 0.3047,0.3044 0.7268,0.4932 1.1917,0.4932 0.4648,0 0.8872,-0.1888 1.1911,-0.4932 0.3038,-0.3039 0.4926,-0.726 0.4926,-1.1909 0,-0.4649 -0.1888,-0.8872 -0.4926,-1.1911 -0.3039,-0.3044 -0.7263,-0.4932 -1.1911,-0.4932 -0.4649,0 -0.887,0.1888 -1.1917,0.4932 -0.2106,0.2109 -0.3666,0.4791 -0.4414,0.7784 H 68.9366 v -2.4962 h 1.6027 v -8.2205 h -4.9317 v 3.2885 h -6.5764 c -0.4493,0 -0.8365,-0.163 -1.1611,-0.4881 -0.32,-0.3201 -0.483,-0.7076 -0.483,-1.156 0,-0.4496 0.163,-0.8368 0.483,-1.1613 0.3246,-0.3201 0.7118,-0.4831 1.1611,-0.4831 h 1.6444 c 1.8173,0 3.3667,-0.64 4.6514,-1.9247 1.2795,-1.279 1.9247,-2.8332 1.9247,-4.6514 0,-1.8181 -0.6452,-3.3718 -1.9247,-4.6513 -1.2847,-1.2853 -2.8341,-1.9248 -4.6514,-1.9248 h -8.2205 v 4.932 h 8.2205 c 0.4487,0 0.8354,0.1628 1.1554,0.4828 0.3257,0.3245 0.4881,0.7126 0.4881,1.1613 0,0.4488 -0.1624,0.836 -0.4881,1.156 -0.32,0.3254 -0.7067,0.4881 -1.1554,0.4881 h -1.6444 c -1.8181,0 -3.3724,0.6395 -4.6511,1.925 -1.2855,1.2787 -1.925,2.8333 -1.925,4.6514 0,1.8179 0.6395,3.3664 1.925,4.6511 1.2787,1.279 2.833,1.925 4.6511,1.925 z m 23.836,2.0489 c 0.2366,0 0.4526,0.0975 0.6071,0.2523 0.1551,0.155 0.252,0.371 0.252,0.6077 0,0.2364 -0.0969,0.4524 -0.252,0.6078 -0.1545,0.1545 -0.3705,0.252 -0.6071,0.252 -0.2367,0 -0.4527,-0.0975 -0.6078,-0.252 -0.1551,-0.1554 -0.2523,-0.3714 -0.2523,-0.6078 0,-0.2367 0.0972,-0.4527 0.2523,-0.6077 0.1551,-0.1548 0.3711,-0.2523 0.6078,-0.2523 z M 32.0389,57.6227 c 0.2367,0 0.4524,0.0975 0.6071,0.252 0.1551,0.1553 0.2526,0.371 0.2526,0.6077 0,0.2367 -0.0975,0.4527 -0.2526,0.6078 -0.1547,0.1547 -0.3704,0.2523 -0.6071,0.2523 -0.2367,0 -0.4527,-0.0976 -0.6078,-0.2523 -0.1553,-0.1551 -0.2523,-0.3711 -0.2523,-0.6078 0,-0.2367 0.097,-0.4524 0.2523,-0.6077 0.1551,-0.1545 0.3711,-0.252 0.6078,-0.252 z m 2.3306,25.8681 H 32.726 v 4.932 h 6.5769 V 75.2703 c 0,-0.9096 0.3195,-1.6835 0.9596,-2.3289 0.6446,-0.6392 1.419,-0.9593 2.3275,-0.9593 0.9096,0 1.6838,0.3201 2.323,0.9593 0.6454,0.6454 0.9655,1.4193 0.9655,2.3289 v 8.2205 h -1.6436 v 4.932 h 6.5756 V 75.2703 c 0,-2.2668 -0.802,-4.2083 -2.4132,-5.813 -1.6041,-1.6055 -3.5404,-2.4072 -5.8073,-2.4072 -2.2669,0 -4.2078,0.8017 -5.8125,2.4072 -1.6049,1.6047 -2.408,3.5462 -2.408,5.813 z m 42.7462,0 h -4.932 v 4.932 h 12.3239 l 4.9462,-4.932 H 82.0474 V 63.5122 l -4.9317,8.6352 z" /><path
           id="path22"
           style="fill:#e60c80;fill-opacity:1;fill-rule:nonzero;stroke:none"
           d="M 94.0402,76.7415 91.442,72.1477 h -1.9908 l 4.589,8.0339 4.5882,-8.0339 h -5.7356 v 1.7203 h 2.7697 z m 5.7351,-0.6537 v -3.9401 h -1.7207 v 8.104 l 4.5885,-4.5882 v 3.9402 h 1.7212 v -8.104 z" /><path
           id="path24"
           style="fill:#e60c80;fill-opacity:1;fill-rule:nonzero;stroke:none"
           d="M 70.5393,51.7096 55.1035,24.4089 H 43.2734 L 70.5393,72.1477 97.806,24.4089 H 63.7228 v 10.2245 h 16.46 z m 44.3075,-9.2914 h 3.8418 V 38.8689 35.3687 32.487 c 0.2999,-0.0751 0.5675,-0.2307 0.779,-0.4422 0.3038,-0.3036 0.4929,-0.7259 0.4929,-1.1911 0,-0.4649 -0.1891,-0.887 -0.4929,-1.1908 -0.3045,-0.3045 -0.7268,-0.4933 -1.1914,-0.4933 -0.4649,0 -0.8867,0.1888 -1.1912,0.4933 -0.3041,0.3038 -0.4929,0.7259 -0.4929,1.1908 0,0.4652 0.1888,0.8875 0.4929,1.1911 0.2115,0.2115 0.4797,0.368 0.779,0.4428 v 2.8811 3.5002 2.7247 h -3.0172 V 24.4089 h -10.2246 v 34.0826 h -15.171 v 10.2243 h 25.3159 l 10.3043,-10.2243 h -10.2246 z m 4.0368,-10.9573 c -0.155,0.1556 -0.371,0.2528 -0.6074,0.2528 -0.237,0 -0.4527,-0.0972 -0.6075,-0.2528 -0.1551,-0.1545 -0.252,-0.3705 -0.252,-0.6072 0,-0.2364 0.0969,-0.4521 0.252,-0.6077 0.1548,-0.1543 0.3705,-0.2518 0.6075,-0.2518 0.2364,0 0.4524,0.0975 0.6074,0.2518 0.1554,0.1556 0.2523,0.3713 0.2523,0.6077 0,0.2367 -0.0969,0.4527 -0.2523,0.6072 z m 98.212,22.4563 h 2.3352 v 8.424 c -0.2994,0.0751 -0.5675,0.2316 -0.779,0.4428 -0.3039,0.3039 -0.4929,0.7262 -0.4929,1.1911 0,0.4649 0.189,0.887 0.4929,1.1911 0.3045,0.3045 0.7262,0.4933 1.1911,0.4933 0.4646,0 0.887,-0.1888 1.1914,-0.4933 0.3042,-0.3041 0.493,-0.7262 0.493,-1.1911 0,-0.4649 -0.1888,-0.8872 -0.493,-1.1911 -0.2114,-0.2112 -0.479,-0.3671 -0.7789,-0.4419 v -9.2495 h -3.1598 V 24.4089 H 206.8702 V 44.4161 L 196.6456,34.1915 186.4208,44.4161 V 33.0415 l -10.2246,6.0443 v 30.0728 l 20.4494,-20.45 20.45,20.45 z m 2.7473,9.1979 c 0.2367,0 0.4524,0.0975 0.6075,0.2528 0.1553,0.1545 0.2523,0.3705 0.2523,0.6072 0,0.2367 -0.097,0.4524 -0.2523,0.6078 -0.1551,0.1545 -0.3708,0.252 -0.6075,0.252 -0.2369,0 -0.4527,-0.0975 -0.6074,-0.252 -0.1551,-0.1554 -0.252,-0.3711 -0.252,-0.6078 0,-0.2367 0.0969,-0.4527 0.252,-0.6072 0.1547,-0.1553 0.3705,-0.2528 0.6074,-0.2528" /></g><g
         id="g26"><path
           id="path28"
           style="fill:#00a0e4;fill-opacity:1;fill-rule:nonzero;stroke:none"
           d="m 147.9013,34.6337 c 2.9926,0 5.5749,0.955 7.7641,2.8641 l -3e-4,3e-4 0.001,6e-4 c 0.2264,0.1976 0.4492,0.4059 0.6678,0.6244 1.8845,1.8749 3.0053,4.0666 3.3698,6.5699 0.0876,0.6032 0.1318,1.2246 0.1318,1.8641 0,3.3029 -1.163,6.1064 -3.5016,8.4328 -2.3264,2.3385 -5.1299,3.5019 -8.4331,3.5019 -3.2921,0 -6.1075,-1.1634 -8.4336,-3.5019 -2.3261,-2.3264 -3.4895,-5.1299 -3.4895,-8.4328 0,-3.2928 1.1634,-6.1076 3.4895,-8.434 2.3261,-2.3263 5.1415,-3.4894 8.4336,-3.4894 z m 52.2715,23.8249 c -8.4992,8.4098 -87.2686,61.0917 -96.488,47.1512 -5.1304,-7.0225 17.5641,-29.4613 30.8163,-41.3869 3.8503,2.9953 8.3188,4.4932 13.4002,4.4932 6.1183,0 11.3298,-2.1632 15.6685,-6.4911 4.3277,-4.3384 6.4905,-9.5499 6.4905,-15.6679 0,-2.7471 -0.4377,-5.3153 -1.3133,-7.704 10.2688,-6.3233 19.9729,-11.2354 28.2872,-14.419 18.5593,-7.9778 30.0901,-7.9226 19.8057,14.0031 20.5739,-26.6071 -1.0568,-30.1938 -22.7353,-21.6992 -8.7423,3.3474 -18.915,8.4926 -29.6453,15.0982 -0.286,-0.3166 -0.5819,-0.6293 -0.8895,-0.9366 -4.3387,-4.3271 -9.5502,-6.491 -15.6685,-6.491 -6.1075,0 -11.3303,2.1639 -15.6571,6.491 -4.3271,4.3265 -6.4911,9.5499 -6.4911,15.6575 0,4.2565 1.048,8.0742 3.1428,11.4647 -15.4599,13.61 -41.2538,39.5716 -31.8439,52.45 14.3346,20.3471 90.9156,-37.9582 103.1208,-52.0132" /><path
           id="path30"
           style="fill:#00a0e4;fill-opacity:1;fill-rule:nonzero;stroke:none"
           d="m 23.4235,83.4908 h -1.6446 v 4.932 h 6.5766 V 75.5711 h 1.368 V 60.1163 c 0.3002,-0.0748 0.5684,-0.2313 0.7793,-0.4428 0.3044,-0.3038 0.4926,-0.7262 0.4926,-1.1911 0,-0.4649 -0.1882,-0.8869 -0.4926,-1.1908 -0.3039,-0.3045 -0.7263,-0.4932 -1.1911,-0.4932 -0.4646,0 -0.887,0.1887 -1.1914,0.4932 -0.3039,0.3039 -0.4927,0.7259 -0.4927,1.1908 0,0.4649 0.1888,0.8873 0.4927,1.1911 0.2114,0.2115 0.479,0.3671 0.7789,0.4422 v 14.6311 h -0.5584 c -0.1151,-2.0432 -0.9125,-3.8095 -2.3925,-5.2895 -1.6106,-1.6055 -3.5464,-2.4072 -5.8132,-2.4072 -2.2666,0 -4.2084,0.8017 -5.8131,2.4072 -1.6046,1.6047 -2.4071,3.5462 -2.4071,5.813 h 4.932 c 0,-0.9096 0.32,-1.6835 0.9595,-2.3289 0.6452,-0.6392 1.4196,-0.9593 2.3287,-0.9593 0.909,0 1.6832,0.3201 2.3232,0.9593 0.6452,0.6454 0.9652,1.4193 0.9652,2.3289 z m 41.9619,4.932 v 3.3208 h 22.202 c 0.0757,0.2999 0.2316,0.5681 0.4422,0.779 0.3045,0.3044 0.7268,0.4932 1.1917,0.4932 0.4649,0 0.887,-0.1888 1.1909,-0.4932 0.3038,-0.3039 0.4926,-0.726 0.4926,-1.1909 0,-0.4649 -0.1888,-0.8872 -0.4926,-1.1911 -0.3039,-0.3044 -0.726,-0.4932 -1.1909,-0.4932 -0.4649,0 -0.8872,0.1888 -1.1917,0.4932 -0.2106,0.2109 -0.3665,0.4791 -0.4416,0.7784 H 66.2097 v -2.4962 h 1.6027 v -8.2205 h -4.932 v 3.2885 h -6.5761 c -0.4493,0 -0.8365,-0.163 -1.1611,-0.4881 -0.32,-0.3201 -0.483,-0.7076 -0.483,-1.156 0,-0.4496 0.163,-0.8368 0.483,-1.1613 0.3246,-0.3201 0.7118,-0.4831 1.1611,-0.4831 h 1.6444 c 1.8173,0 3.3664,-0.64 4.651,-1.9247 1.2796,-1.279 1.9251,-2.8332 1.9251,-4.6514 0,-1.8181 -0.6455,-3.3718 -1.9251,-4.6513 -1.2846,-1.2853 -2.8337,-1.9248 -4.651,-1.9248 h -8.2205 v 4.932 h 8.2205 c 0.4484,0 0.835,0.1628 1.1554,0.4828 0.3257,0.3245 0.4881,0.7126 0.4881,1.1613 0,0.4488 -0.1624,0.836 -0.4881,1.156 -0.3204,0.3254 -0.707,0.4881 -1.1554,0.4881 h -1.6444 c -1.8182,0 -3.3724,0.6395 -4.6514,1.925 -1.2852,1.2787 -1.9247,2.8333 -1.9247,4.6514 0,1.8179 0.6395,3.3664 1.9247,4.6511 1.279,1.279 2.8332,1.925 4.6514,1.925 z m 23.8359,2.0489 c 0.2367,0 0.4524,0.0975 0.6072,0.2523 0.1551,0.155 0.252,0.371 0.252,0.6077 0,0.2364 -0.0969,0.4524 -0.252,0.6078 -0.1548,0.1545 -0.3705,0.252 -0.6072,0.252 -0.2367,0 -0.4527,-0.0975 -0.6077,-0.252 -0.1554,-0.1554 -0.2523,-0.3714 -0.2523,-0.6078 0,-0.2367 0.0969,-0.4527 0.2523,-0.6077 0.155,-0.1548 0.371,-0.2523 0.6077,-0.2523 z M 29.3117,57.6227 c 0.2366,0 0.4526,0.0975 0.6071,0.252 0.1554,0.1553 0.2529,0.371 0.2529,0.6077 0,0.2367 -0.0975,0.4527 -0.2529,0.6078 -0.1545,0.1547 -0.3705,0.2523 -0.6071,0.2523 -0.2365,0 -0.4525,-0.0976 -0.6078,-0.2523 -0.155,-0.1551 -0.252,-0.3711 -0.252,-0.6078 0,-0.2367 0.097,-0.4524 0.252,-0.6077 0.1553,-0.1545 0.3713,-0.252 0.6078,-0.252 z m 2.3309,25.8681 h -1.6435 v 4.932 H 36.576 V 75.2703 c 0,-0.9096 0.3192,-1.6835 0.9592,-2.3289 0.6449,-0.6392 1.4194,-0.9593 2.3279,-0.9593 0.9096,0 1.6835,0.3201 2.3229,0.9593 0.6452,0.6454 0.9652,1.4193 0.9652,2.3289 v 8.2205 h -1.6435 v 4.932 h 6.5755 V 75.2703 c 0,-2.2668 -0.8016,-4.2083 -2.4128,-5.813 -1.6041,-1.6055 -3.5405,-2.4072 -5.8073,-2.4072 -2.2669,0 -4.2078,0.8017 -5.8128,2.4072 -1.6047,1.6047 -2.4077,3.5462 -2.4077,5.813 z m 42.7459,0 h -4.9317 v 4.932 h 12.3239 l 4.9461,-4.932 H 79.3205 V 63.5122 l -4.932,8.6352 z" /><path
           id="path32"
           style="fill:#00a0e4;fill-opacity:1;fill-rule:nonzero;stroke:none"
           d="m 91.3133,76.7415 -2.5982,-4.5938 h -1.9908 l 4.589,8.0339 4.5881,-8.0339 h -5.7356 v 1.7203 h 2.7698 z m 5.7348,-0.6537 v -3.9401 h -1.7204 v 8.104 l 4.5885,-4.5882 v 3.9402 h 1.7212 v -8.104 z" /><path
           id="path34"
           style="fill:#00a0e4;fill-opacity:1;fill-rule:nonzero;stroke:none"
           d="M 67.8124,51.7096 52.3766,24.4089 H 40.5465 L 67.8124,72.1477 95.0791,24.4089 H 60.9959 v 10.2245 h 16.4599 z m 44.3075,-9.2914 h 3.8418 V 38.8689 35.3687 32.487 c 0.2999,-0.0751 0.5675,-0.2307 0.7786,-0.4422 0.3042,-0.3036 0.493,-0.7259 0.493,-1.1911 0,-0.4649 -0.1888,-0.887 -0.493,-1.1908 -0.3044,-0.3045 -0.7265,-0.4933 -1.1914,-0.4933 -0.4648,0 -0.8863,0.1888 -1.1908,0.4933 -0.3041,0.3038 -0.4929,0.7259 -0.4929,1.1908 0,0.4652 0.1888,0.8875 0.4929,1.1911 0.2112,0.2115 0.4796,0.368 0.779,0.4428 v 2.8811 3.5002 2.7247 h -3.0172 V 24.4089 h -10.2246 v 34.0826 h -15.171 v 10.2243 h 25.3159 l 10.3042,-10.2243 h -10.2245 z m 4.0365,-10.9573 c -0.155,0.1556 -0.3708,0.2528 -0.6075,0.2528 -0.2366,0 -0.4524,-0.0972 -0.6071,-0.2528 -0.1554,-0.1545 -0.252,-0.3705 -0.252,-0.6072 0,-0.2364 0.0966,-0.4521 0.252,-0.6077 0.1547,-0.1543 0.3705,-0.2518 0.6071,-0.2518 0.2367,0 0.4525,0.0975 0.6075,0.2518 0.1556,0.1556 0.2523,0.3713 0.2523,0.6077 0,0.2367 -0.0967,0.4527 -0.2523,0.6072 z m 98.212,22.4563 h 2.3354 v 8.424 c -0.2993,0.0751 -0.5675,0.2316 -0.7789,0.4428 -0.3042,0.3039 -0.493,0.7262 -0.493,1.1911 0,0.4649 0.1888,0.887 0.493,1.1911 0.3044,0.3045 0.7259,0.4933 1.1911,0.4933 0.4646,0 0.887,-0.1888 1.1914,-0.4933 0.3039,-0.3041 0.4927,-0.7262 0.4927,-1.1911 0,-0.4649 -0.1888,-0.8872 -0.4927,-1.1911 -0.2115,-0.2112 -0.4791,-0.3671 -0.779,-0.4419 v -9.2495 h -3.16 V 24.4089 H 204.1432 V 44.4161 L 193.9187,34.1915 183.6935,44.4161 V 33.0415 l -10.2245,6.0443 v 30.0728 l 20.4497,-20.45 20.4497,20.45 z m 2.7476,9.1979 c 0.2364,0 0.4521,0.0975 0.6075,0.2528 0.1553,0.1545 0.2522,0.3705 0.2522,0.6072 0,0.2367 -0.0969,0.4524 -0.2522,0.6078 -0.1554,0.1545 -0.3711,0.252 -0.6075,0.252 -0.237,0 -0.4527,-0.0975 -0.6075,-0.252 -0.155,-0.1554 -0.252,-0.3711 -0.252,-0.6078 0,-0.2367 0.097,-0.4527 0.252,-0.6072 0.1548,-0.1553 0.3705,-0.2528 0.6075,-0.2528" /></g><path
         id="path36"
         style="fill:#ffffff;fill-opacity:1;fill-rule:nonzero;stroke:none"
         d="m 149.2648,34.6337 c 2.9925,0 5.5752,0.955 7.7641,2.8641 l -3e-4,3e-4 10e-4,6e-4 c 0.2268,0.1976 0.4493,0.4059 0.6679,0.6244 1.8844,1.8749 3.0052,4.0666 3.3698,6.5699 0.0876,0.6032 0.1318,1.2246 0.1318,1.8641 0,3.3029 -1.1631,6.1064 -3.5016,8.4328 -2.3262,2.3385 -5.1299,3.5019 -8.4331,3.5019 -3.2922,0 -6.1075,-1.1634 -8.4337,-3.5019 -2.3261,-2.3264 -3.4894,-5.1299 -3.4894,-8.4328 0,-3.2928 1.1633,-6.1076 3.4894,-8.434 2.3262,-2.3263 5.1415,-3.4894 8.4337,-3.4894 z m 52.2714,23.8249 c -8.4991,8.4098 -87.2685,61.0917 -96.4879,47.1512 -5.1304,-7.0225 17.564,-29.4613 30.8163,-41.3869 3.8503,2.9953 8.3188,4.4932 13.4002,4.4932 6.1183,0 11.3298,-2.1632 15.6685,-6.4911 4.3276,-4.3384 6.4905,-9.5499 6.4905,-15.6679 0,-2.7471 -0.4377,-5.3153 -1.3133,-7.704 10.2688,-6.3233 19.9729,-11.2354 28.2872,-14.419 18.5593,-7.9778 30.0903,-7.9226 19.8057,14.0031 20.5738,-26.6071 -1.0568,-30.1938 -22.7353,-21.6992 -8.7423,3.3474 -18.915,8.4926 -29.6453,15.0982 -0.286,-0.3166 -0.5817,-0.6293 -0.8895,-0.9366 -4.3387,-4.3271 -9.5502,-6.491 -15.6685,-6.491 -6.1075,0 -11.3304,2.1639 -15.6572,6.491 -4.3271,4.3265 -6.4907,9.5499 -6.4907,15.6575 0,4.2565 1.0476,8.0742 3.1424,11.4647 -15.4598,13.61 -41.2537,39.5716 -31.8438,52.45 14.3345,20.3471 90.9156,-37.9582 103.1207,-52.0132" /><g
         id="g38"><path
           id="path40"
           style="fill:#ffffff;fill-opacity:1;fill-rule:nonzero;stroke:none"
           d="m 24.787,83.4908 h -1.6447 v 4.932 H 29.719 V 75.5711 h 1.3683 V 60.1163 c 0.2999,-0.0748 0.568,-0.2313 0.7789,-0.4428 0.3045,-0.3038 0.4927,-0.7262 0.4927,-1.1911 0,-0.4649 -0.1882,-0.8869 -0.4927,-1.1908 -0.3038,-0.3045 -0.7259,-0.4932 -1.1908,-0.4932 -0.4649,0 -0.8872,0.1887 -1.1917,0.4932 -0.3039,0.3039 -0.4926,0.7259 -0.4926,1.1908 0,0.4649 0.1887,0.8873 0.4926,1.1911 0.2115,0.2115 0.4791,0.3671 0.779,0.4422 v 14.6311 h -0.5584 c -0.1151,-2.0432 -0.9125,-3.8095 -2.3925,-5.2895 -1.6104,-1.6055 -3.5464,-2.4072 -5.813,-2.4072 -2.2669,0 -4.2086,0.8017 -5.8133,2.4072 -1.6047,1.6047 -2.4072,3.5462 -2.4072,5.813 h 4.932 c 0,-0.9096 0.3201,-1.6835 0.9596,-2.3289 0.6451,-0.6392 1.4198,-0.9593 2.3289,-0.9593 0.9091,0 1.6829,0.3201 2.323,0.9593 0.6452,0.6454 0.9652,1.4193 0.9652,2.3289 z m 41.9618,4.932 v 3.3208 h 22.2021 c 0.0757,0.2999 0.2316,0.5681 0.4422,0.779 0.3047,0.3044 0.7268,0.4932 1.1917,0.4932 0.4649,0 0.8869,-0.1888 1.1908,-0.4932 0.3039,-0.3039 0.4927,-0.726 0.4927,-1.1909 0,-0.4649 -0.1888,-0.8872 -0.4927,-1.1911 -0.3039,-0.3044 -0.7259,-0.4932 -1.1908,-0.4932 -0.4649,0 -0.887,0.1888 -1.1917,0.4932 -0.2106,0.2109 -0.3665,0.4791 -0.4416,0.7784 H 67.5731 v -2.4962 h 1.6027 v -8.2205 h -4.932 v 3.2885 h -6.5761 c -0.4492,0 -0.8365,-0.163 -1.161,-0.4881 -0.3201,-0.3201 -0.483,-0.7076 -0.483,-1.156 0,-0.4496 0.1629,-0.8368 0.483,-1.1613 0.3245,-0.3201 0.7118,-0.4831 1.161,-0.4831 h 1.6444 c 1.8173,0 3.3665,-0.64 4.6514,-1.9247 1.2793,-1.279 1.9247,-2.8332 1.9247,-4.6514 0,-1.8181 -0.6454,-3.3718 -1.9247,-4.6513 -1.2849,-1.2853 -2.8341,-1.9248 -4.6514,-1.9248 h -8.2204 v 4.932 h 8.2204 c 0.4488,0 0.8354,0.1628 1.1554,0.4828 0.3257,0.3245 0.4882,0.7126 0.4882,1.1613 0,0.4488 -0.1625,0.836 -0.4882,1.156 -0.32,0.3254 -0.7066,0.4881 -1.1554,0.4881 h -1.6444 c -1.8181,0 -3.3723,0.6395 -4.6513,1.925 -1.2853,1.2787 -1.9247,2.8333 -1.9247,4.6514 0,1.8179 0.6394,3.3664 1.9247,4.6511 1.279,1.279 2.8332,1.925 4.6513,1.925 z m 23.836,2.0489 c 0.2367,0 0.4527,0.0975 0.6072,0.2523 0.155,0.155 0.252,0.371 0.252,0.6077 0,0.2364 -0.097,0.4524 -0.252,0.6078 -0.1545,0.1545 -0.3705,0.252 -0.6072,0.252 -0.2367,0 -0.4527,-0.0975 -0.6078,-0.252 -0.1553,-0.1554 -0.2522,-0.3714 -0.2522,-0.6078 0,-0.2367 0.0969,-0.4527 0.2522,-0.6077 0.1551,-0.1548 0.3711,-0.2523 0.6078,-0.2523 z M 30.6754,57.6227 c 0.2364,0 0.4524,0.0975 0.6069,0.252 0.1553,0.1553 0.2528,0.371 0.2528,0.6077 0,0.2367 -0.0975,0.4527 -0.2528,0.6078 -0.1545,0.1547 -0.3705,0.2523 -0.6069,0.2523 -0.2367,0 -0.4527,-0.0976 -0.6077,-0.2523 -0.1554,-0.1551 -0.2523,-0.3711 -0.2523,-0.6078 0,-0.2367 0.0969,-0.4524 0.2523,-0.6077 0.155,-0.1545 0.371,-0.252 0.6077,-0.252 z m 2.3306,25.8681 h -1.6435 v 4.932 h 6.577 V 75.2703 c 0,-0.9096 0.3191,-1.6835 0.9595,-2.3289 0.6446,-0.6392 1.419,-0.9593 2.3275,-0.9593 0.9097,0 1.6835,0.3201 2.323,0.9593 0.6455,0.6454 0.9655,1.4193 0.9655,2.3289 v 8.2205 h -1.6435 v 4.932 h 6.5752 V 75.2703 c 0,-2.2668 -0.8016,-4.2083 -2.4128,-5.813 -1.6042,-1.6055 -3.5405,-2.4072 -5.8074,-2.4072 -2.2668,0 -4.2077,0.8017 -5.8127,2.4072 -1.6047,1.6047 -2.4078,3.5462 -2.4078,5.813 z m 42.7459,0 h -4.9317 v 4.932 h 12.3239 l 4.9462,-4.932 H 80.6839 V 63.5122 l -4.932,8.6352 z" /><path
           id="path42"
           style="fill:#ffffff;fill-opacity:1;fill-rule:nonzero;stroke:none"
           d="m 92.6768,76.7415 -2.5983,-4.5938 h -1.9908 l 4.5891,8.0339 4.5881,-8.0339 h -5.7356 v 1.7203 h 2.7697 z m 5.7347,-0.6537 v -3.9401 h -1.7203 v 8.104 l 4.5884,-4.5882 v 3.9402 h 1.7212 v -8.104 z" /><path
           id="path44"
           style="fill:#ffffff;fill-opacity:1;fill-rule:nonzero;stroke:none"
           d="M 69.1758,51.7096 53.7401,24.4089 H 41.91 L 69.1758,72.1477 96.4426,24.4089 H 62.3594 v 10.2245 h 16.4599 z m 44.3075,-9.2914 h 3.8418 V 38.8689 35.3687 32.487 c 0.2999,-0.0751 0.5675,-0.2307 0.7787,-0.4422 0.3042,-0.3036 0.493,-0.7259 0.493,-1.1911 0,-0.4649 -0.1888,-0.887 -0.493,-1.1908 -0.3041,-0.3045 -0.7265,-0.4933 -1.1911,-0.4933 -0.4652,0 -0.8867,0.1888 -1.1911,0.4933 -0.3042,0.3038 -0.493,0.7259 -0.493,1.1908 0,0.4652 0.1888,0.8875 0.493,1.1911 0.2114,0.2115 0.4796,0.368 0.7789,0.4428 v 2.8811 3.5002 2.7247 h -3.0172 V 24.4089 H 103.2588 V 58.4915 H 88.0877 v 10.2243 h 25.316 l 10.3042,-10.2243 h -10.2246 z m 4.0369,-10.9573 c -0.1554,0.1556 -0.3711,0.2528 -0.6075,0.2528 -0.237,0 -0.4527,-0.0972 -0.6075,-0.2528 -0.155,-0.1545 -0.252,-0.3705 -0.252,-0.6072 0,-0.2364 0.097,-0.4521 0.252,-0.6077 0.1548,-0.1543 0.3705,-0.2518 0.6075,-0.2518 0.2364,0 0.4521,0.0975 0.6075,0.2518 0.1553,0.1556 0.252,0.3713 0.252,0.6077 0,0.2367 -0.0967,0.4527 -0.252,0.6072 z m 98.2116,22.4563 h 2.3355 v 8.424 c -0.2993,0.0751 -0.5675,0.2316 -0.779,0.4428 -0.3038,0.3039 -0.4929,0.7262 -0.4929,1.1911 0,0.4649 0.1891,0.887 0.4929,1.1911 0.3045,0.3045 0.7263,0.4933 1.1912,0.4933 0.4646,0 0.8869,-0.1888 1.1914,-0.4933 0.3038,-0.3041 0.4929,-0.7262 0.4929,-1.1911 0,-0.4649 -0.1891,-0.8872 -0.4929,-1.1911 -0.2115,-0.2112 -0.4791,-0.3671 -0.779,-0.4419 v -9.2495 h -3.1601 V 24.4089 H 205.5067 V 44.4161 L 195.2821,34.1915 185.0573,44.4161 V 33.0415 l -10.2246,6.0443 v 30.0728 l 20.4494,-20.45 20.4497,20.45 z m 2.7477,9.1979 c 0.2364,0 0.4524,0.0975 0.6074,0.2528 0.1554,0.1545 0.2523,0.3705 0.2523,0.6072 0,0.2367 -0.0969,0.4524 -0.2523,0.6078 -0.155,0.1545 -0.371,0.252 -0.6074,0.252 -0.237,0 -0.4527,-0.0975 -0.6075,-0.252 -0.1551,-0.1554 -0.252,-0.3711 -0.252,-0.6078 0,-0.2367 0.0969,-0.4527 0.252,-0.6072 0.1548,-0.1553 0.3705,-0.2528 0.6075,-0.2528" /></g></g></g></svg>